<?xml version="1.0" encoding="UTF-8" standalone="no"?>
<!-- Created with Inkscape (http://www.inkscape.org/) -->

<svg
   version="1.1"
   id="svg2594"
   width="335.2373"
   height="272.29639"
   viewBox="0 0 335.2373 272.29639"
   xmlns="http://www.w3.org/2000/svg"
   xmlns:svg="http://www.w3.org/2000/svg">
  <defs
     id="defs2598" />
  <g
     id="g2600"
     transform="translate(-32.381332,-63.851799)">
    <g
       id="g4009"
       transform="translate(-444.59096,129.36473)">
      <path
         style="fill:#da653b"
         d="m 637.52245,200.19944 c -26.80537,-3.38655 -58.75498,-17.27871 -71.07998,-30.90663 -1.04774,-1.1585 -2.57093,-2.10637 -3.38486,-2.10637 -0.94799,0 -0.55807,-0.72508 1.08489,-2.01744 2.56475,-2.01743 2.56475,-2.01743 6.2744,0.5 6.40054,4.34352 14.5111,2.75187 21.70665,-4.25981 3.22923,-3.14671 4.02576,-3.49879 5.5,-2.43107 9.88367,7.15819 21.7864,5.17782 31.72391,-5.27821 6.63662,-6.9829 8.67977,-7.56884 11.24311,-3.2243 4.71436,7.99025 15.31624,8.70094 24.38894,1.63489 3.63205,-2.82873 3.63205,-2.82873 7.46144,-0.8764 11.82405,6.02825 19.03516,-1.16692 17.89817,-17.85858 -0.55026,-8.07811 -0.39338,-10.02161 0.94356,-11.68908 1.49622,-1.86612 1.56056,-1.51888 0.96113,5.18737 -1.93737,21.67487 12.48298,29.48054 26.95577,14.59105 4.47383,-4.60266 4.47383,-4.60266 7.63793,-1.94025 7.88049,6.631 22.06366,4.64811 32.50724,-4.5447 4.78947,-4.21586 9.61622,-4.19661 5.87795,0.0234 -0.82002,0.9257 -4.27741,5.70503 -7.68309,10.62073 -26.28121,37.93383 -75.30126,60.2247 -120.01716,54.57536 z m -97.37417,-59.97113 c -7.41354,-4.52031 -5.89076,-20.17389 2.32674,-23.91804 3.94514,-1.79752 4.93713,-0.21236 3.36995,5.38505 -2.77671,9.91745 5.95493,13.75263 15.96867,7.01388 5.31287,-3.5753 5.31287,-3.5753 4.66759,1.20097 -1.44995,10.73244 -16.18459,16.50597 -26.33295,10.31814 z m 46.12394,-6.37734 c -0.72395,-1.8866 1.89982,-16.05821 4.98271,-26.91282 3.53613,-12.4504 3.65753,-13.2668 2.47665,-16.65428 -3.00137,-8.60974 -13.72977,-6.04483 -18.52477,4.42883 -2.8885,6.3093 -3.5856,6.59217 -6.03349,2.44824 -2.22107,-3.75999 -10.42454,-7.9745 -15.5222,-7.9745 -4.40328,0 -4.86986,-1.09143 -1.28643,-3.00922 1.38448,-0.74095 3.65738,-2.84199 5.05089,-4.66898 2.94915,-3.86653 3.67132,-3.99956 7.37928,-1.35925 8.63736,6.15034 19.96356,4.28136 32.60786,-5.38075 0.78934,-0.60317 2.13587,-0.18332 3.92462,1.22371 10.85448,8.53814 20.19639,1.14918 19.7327,-15.60754 -0.28909,-10.44694 0.18425,-14.19797 1.79165,-14.19797 0.47819,0 0.78537,4.19176 0.68261,9.31502 -0.37321,18.60647 11.67296,25.48567 24.43626,13.9548 4.00974,-3.62256 4.00974,-3.62256 6.98698,-1.86386 7.75512,4.58106 14.81876,3.8652 20.791,-2.10704 2.83557,-2.83557 3.8217,-3.30137 5.0604,-2.3903 6.65837,4.89727 12.78455,4.7003 19.10039,-0.61413 2.89255,-2.43392 3.41072,-2.54814 6.29507,-1.38758 1.72868,0.69557 3.92521,1.50214 4.88117,1.7924 3.19022,0.96863 8.6712,-0.74702 13.03993,-4.08175 4.32374,-3.30038 4.32374,-3.30038 7.75725,-1.45897 6.26442,3.35964 13.27897,1.92863 21.16596,-4.31799 3.31685,-2.62698 4.31282,-2.97776 5.66181,-1.99407 6.51241,4.74892 12.20323,4.95494 18.51689,0.67038 3.03396,-2.0589 3.55105,-2.16945 3.38438,-0.72356 -0.52487,4.55344 1.56903,23.20672 2.60512,23.20744 0.6218,4.3e-4 -0.70333,0.90856 -2.94475,2.01807 -4.68755,2.32034 -7.4098,5.66346 -12.59605,15.46886 -3.69592,6.98773 -3.69592,6.98773 -5.6327,2.5 -8.49306,-19.67937 -34.83204,-11.7534 -43.24139,13.01228 -3.21805,9.47719 -4.17785,9.15933 -4.3319,-1.43457 -0.18051,-12.41415 -6.20526,-17.69151 -16.92924,-14.82912 -3.88723,1.03756 -3.88723,1.03756 -3.29899,-2.09938 2.70062,-14.40184 1.28897,-19.13772 -5.64593,-18.94114 -7.16335,0.20305 -11.86638,6.50963 -15.32796,20.55421 -1.77536,7.20311 -1.95558,7.3746 -5.87349,5.58948 -2.09317,-0.95371 -2.54705,-1.8528 -2.54705,-5.04545 0,-11.86271 -13.08842,-11.39538 -17.97394,0.64177 -1.84299,4.54083 -3.06036,6.05121 -6.14613,7.62545 -5.60629,2.86012 -6.29521,7.99232 -1.8391,13.70064 0.97383,1.24748 1.53255,3.15351 1.24581,4.25 -0.7333,2.80416 -1.9501,2.4678 -2.75618,-0.76189 -5.84612,-23.42334 -35.36669,-16.25485 -45.43976,11.03415 -2.59071,7.01853 -4.56704,9.24406 -5.66594,6.38038 z m 72.77524,-10.86453 c -3.24599,-3.24599 -0.50306,-8.26145 5.05,-9.23392 3.62479,-0.63478 3.75,-0.55953 3.75,2.25375 0,5.59083 -5.68221,10.09796 -8.8,6.98017 z M 523.33525,95.08125 c -0.38015,-3.27544 -1.30788,-6.57204 -2.06161,-7.32577 -1.14517,-1.14517 -1.14983,-1.5535 -0.0284,-2.48424 0.73814,-0.61261 2.55082,-3.80729 4.0282,-7.09931 3.12468,-6.96273 4.09086,-7.39071 5.04664,-2.23549 1.00794,5.43656 4.33868,10.27323 8.1798,11.87815 4.27835,1.78761 4.21898,2.06847 -0.90247,4.26911 -2.3375,1.0044 -6.34723,3.4297 -8.91051,5.38955 -4.66051,3.56336 -4.66051,3.56336 -5.3517,-2.392 z m 29.05394,-45.01269 c 0.45895,-2.96017 0.86231,-8.1337 0.89636,-11.49675 0.0562,-5.54893 0.35728,-6.3906 3.25463,-9.0977 1.756,-1.6407 3.48186,-4.28912 3.83523,-5.88538 0.35338,-1.59626 1.27915,-4.5989 2.05728,-6.67253 5.03618,-13.42094 -0.36967,-19.5646 -14.16576,-16.09913 -8.48513,2.13139 -8.55312,1.88295 -1.93409,-7.0673 52.42211,-70.885234 157.58705,-70.912392 209.98914,-0.0542 3.56661,4.82278 6.03576,7.31252 6.81034,6.86712 0.66833,-0.3843 0.1242,0.49884 -1.20917,1.96253 -2.96111,3.2505 -2.90182,3.24876 -4.0914,0.11993 -0.53142,-1.39773 -2.31743,-3.31023 -3.96893,-4.25 -2.50687,-1.42652 -3.00376,-2.33543 -3.00904,-5.50413 -0.0185,-11.12125 -11.54727,-11.25754 -17.30158,-0.20455 -2.08245,4 -2.08245,4 -2.86765,-0.5 -1.83518,-10.51743 -15.06038,-13.74652 -23.58709,-5.75907 -2.25,2.1077 -2.25,2.1077 -4.56445,-0.0666 -7.05016,-6.62328 -15.99633,0.23141 -19.39697,14.86225 -1.96715,8.46344 -1.96715,8.46344 -8.37786,9.04206 -13.22275,1.19346 -19.97261,7.52906 -25.32076,23.76677 -2.83994,8.62243 -4.06959,7.89243 -4.08071,-2.4226 -0.0167,-15.45105 -12.96794,-20.99223 -24.79978,-10.61053 -1.63025,1.43044 -2.04687,1.41965 -4.65429,-0.12059 -5.70688,-3.37114 -10.39471,-0.88207 -13.64694,7.24605 -1.97975,4.94789 -1.73063,4.9416 -6.90229,0.17453 -12.67835,-11.6865 -33.92926,-0.87286 -39.39962,20.04869 -2.13562,8.16773 -4.76058,9.4352 -3.5646,1.72118 z M 679.77763,-4.89758 c 2.91521,-2.9152 3.27152,-4.91598 0.87548,-4.91598 -0.59197,0 -2.11892,-1.125 -3.39323,-2.5 -2.81577,-3.03827 -3.85096,-3.10468 -6.70423,-0.43013 -2.20819,2.06987 -2.20819,2.06987 0.87077,4.83308 1.69342,1.51976 3.3668,3.51332 3.71861,4.43013 0.85253,2.22164 1.05615,2.15936 4.6326,-1.4171 z m -36.93017,-7.33925 c 0,-2.52487 5.30798,-7.82367 9.96697,-9.94971 3.87382,-1.76775 4.19419,-2.12081 2.20299,-2.42783 -1.28152,-0.1976 -3.08152,-1.00599 -4,-1.79642 -0.91848,-0.79043 -3.33593,-2.80713 -5.37212,-4.481548 -2.03619,-1.674419 -3.97901,-3.916683 -4.31739,-4.98281 -0.88324,-2.782865 -1.69927,-2.41559 -4.14239,1.864394 -1.18906,2.083071 -3.77656,4.656937 -5.75,5.719704 -4.42718,2.3842 -4.4367,2.70238 -0.14205,4.75035 2.00452,0.95589 4.40979,3.33407 5.75,5.68523 1.2672,2.22307 2.81556,3.8506 3.44081,3.61674 0.6969,-0.26066 0.94199,0.31978 0.63336,1.49999 -0.27689,1.05885 -9.6e-4,1.92518 0.61319,1.92518 0.61415,0 1.11663,-0.64047 1.11663,-1.42327 z m 54,43.91715 c 0,-1.67037 5.5814,-26.75549 6.537,-29.38 0.40644,-1.11624 0.89003,-1.03739 2.48385,0.40499 2.43428,2.20299 2.48599,3.77796 0.23676,7.21072 -0.95831,1.46257 -2.8737,7.1477 -4.25641,12.63362 -2.21306,8.78031 -5.0012,13.87061 -5.0012,9.13067 z m 48.71258,-6.11464 c -1.21477,-1.21477 -0.78343,-7.07555 0.60558,-8.22833 2.95112,-2.44921 8.21268,-1.87972 7.84483,0.84909 -0.80623,5.9807 -5.63355,10.19611 -8.45041,7.37924 z"
         id="path3996" />
      <g
         id="g4004">
        <path
           style="fill:#3b3937"
           d="m 636.49327,206.06405 c -26.79281,-2.57846 -55.94479,-15.31634 -74.89581,-32.72553 -3.39393,-3.11781 -3.4263,-3.88682 -0.22498,-5.34543 2.24034,-1.02077 2.88863,-0.80435 5.75,1.91957 55.48429,52.81875 156.29237,35.32254 197.26151,-34.23663 1.30384,-2.21371 5.46347,-1.16754 5.46347,1.37409 0,4.3785 -14.78971,23.45847 -26.51466,34.20614 -29.03555,26.61543 -66.18906,38.71986 -106.83953,34.80779 z M 529.27672,168.29363 c -14.69405,-6.67389 -19.06638,-33.10255 -8.82125,-53.32033 13.77179,-27.17733 53.90079,-28.10564 46.33178,-1.07181 -3.69338,13.19147 -16.71908,18.14642 -16.09269,6.12163 0.71894,-13.80141 -14.1114,-11.68598 -18.85578,2.68961 -4.49725,13.62683 2.98464,23.97371 17.33553,23.97371 16.51757,0 19.56298,-3.15759 23.68401,-24.55639 4.66595,-24.22831 7.91709,-31.94361 13.46071,-31.94361 3.68261,0 3.9414,3.0612 1.09517,12.95453 -5.39783,18.76251 -7.15698,32.42442 -4.57558,35.53482 3.49576,4.21213 11.08241,-0.33515 13.1077,-7.85647 7.45238,-27.67604 35.71435,-32.25737 37.83336,-6.13288 0.53663,6.61592 0.70277,7 3.02795,7 6.06962,0 11.64209,-18.12895 6.68289,-21.74148 -3.59166,-2.61634 -3.32008,-4.93911 0.83939,-7.17913 2.33343,-1.25664 4.17148,-3.39383 5.57076,-6.47741 3.08549,-6.79945 3.43652,-7.37753 5.1277,-8.4443 3.58413,-2.26081 5.1205,-0.0385 4.39663,6.35974 -0.71844,6.35018 -0.79534,6.23883 4.42246,6.40362 5.99498,0.18934 3.43178,7.93449 -2.96434,8.95727 -7.38255,1.18051 -10.24312,12.95354 -4.28597,17.63943 8.03737,6.3222 14.21117,0.17727 17.36028,-17.2791 4.96262,-27.5092 9.2628,-37.4515 15.21106,-35.16894 2.83268,1.087 2.77077,3.88608 -0.30707,13.88495 -4.23377,13.75408 -3.69792,17.38327 1.8173,12.30795 12.1454,-11.17667 20.71353,-7.0052 19.46693,9.47765 -0.96353,12.74015 9.53783,14.57737 12.21995,2.13788 3.31056,-15.35412 13.73767,-25.3984 25.04354,-24.12407 18.59208,2.0956 12.24914,27.63685 -6.885,27.72398 -5.47892,0.025 -6.28777,2.34697 -1.66782,4.78793 9.97315,5.26934 20.83647,-2.85315 31.45262,-23.51711 9.05107,-17.61759 14.10214,-21.52636 20.90366,-16.17628 3.32935,2.61887 3.29987,3.17817 -0.36514,6.92742 -3.84579,3.93419 -3.85045,3.8991 1.67454,12.62081 5.3054,8.37508 6.19323,8.73017 9.84787,3.9387 5.23656,-6.86549 6.83829,-2.97953 2.86394,6.94822 -7.81927,19.5322 -27.44301,27.41427 -37.89136,15.21945 -3.62178,-4.22718 -3.62178,-4.22718 -8.16688,1.04425 -11.21743,13.01003 -26.56628,14.66944 -33.40073,3.61106 -2.67215,-4.32362 -3.11331,-4.16427 -7.1541,2.58399 -4.86998,8.13302 -11.34452,11.67022 -17.22848,9.41234 -4.17505,-1.60212 -5.69639,-10.91072 -3.47558,-21.266 1.78322,-8.31483 -2.51952,-12.06852 -7.99086,-6.9712 -4.31514,4.02017 -5.37065,8.36965 -4.6156,19.01967 1.00404,14.16204 -9.10957,20.89643 -13.30556,8.85982 -1.37726,-3.95082 -2.33737,-3.81162 -5.53494,0.80247 -6.89668,9.95192 -20.73806,10.81981 -23.09028,1.44783 -1.25995,-5.02005 -2.17704,-5.34385 -7.7813,-2.74735 -2.98298,1.38203 -6.7666,4.29311 -9.0463,6.96014 -8.88001,10.38871 -22.97282,11.64141 -28.36043,2.52092 -2.28206,-3.86322 -2.82434,-3.7885 -5.71284,0.78718 -7.98189,12.64414 -19.97673,13.67084 -23.85311,2.04171 -0.19619,-0.58857 -3.29243,1.86561 -6.88054,5.45372 -9.41154,9.41154 -22.1881,12.48857 -32.4682,7.81946 z m 92.10112,-35.16595 c 3.08255,-5.96097 1.23197,-10.94124 -4.06556,-10.94124 -5.66943,0 -9.54465,5.56149 -8.04331,11.54329 1.30489,5.19909 9.31494,4.80083 12.10887,-0.60205 z m 158.46962,-21.94124 c 3.54344,-3.54344 1.29636,-14.58717 -2.80784,-13.7997 -1.77695,0.34094 -7.12867,9.1871 -7.1688,11.8497 -0.0618,4.10141 6.53571,5.39093 9.97664,1.95 z m -34.82874,-3.65499 c 3.57981,-3.23968 1.71845,-8.34501 -3.04252,-8.34501 -4.81482,0 -8.015,5.71374 -4.92874,8.8 1.71585,1.71585 5.83213,1.4809 7.97126,-0.45499 z M 518.84687,102.6849 c -2.20244,-5.79286 -2.21955,-10.82392 -0.0459,-13.49846 2.61898,-3.22251 3.63879,-1.82086 4.58085,6.296 0.86721,7.47191 -2.43717,12.71999 -4.53494,7.20246 z m -29.52033,-7.39045 c -12.3061,-3.10292 -16.61421,-19.38272 -7.40072,-27.96639 3.16734,-2.95082 5.61187,-2.68474 9.03884,0.98384 8.2315,8.81185 22.46064,-1.24791 26.46778,-18.71227 4.05154,-17.65785 7.49609,-22.76069 12.19331,-18.06348 2.64239,2.6424 -3.67897,34.25057 -9.15386,45.77128 -6.33339,13.32723 -19.49053,20.92572 -31.14535,17.98702 z m 50.2709,-12.18812 c -8.70965,-5.0729 -5.21129,-45.41699 4.19718,-48.40312 5.14907,-1.63425 5.8385,2.00023 3.4367,18.11713 -1.66671,11.18416 9.73962,10.48683 12.57777,-0.76895 4.42849,-17.5629 18.74693,-28.20398 30.0711,-22.34802 12.61038,6.52108 5.04371,25.31034 -10.59377,26.30606 -7.34307,0.46757 -8.48506,2.42975 -2.95632,5.0796 10.52327,5.04367 24.40534,-5.23852 27.64288,-20.47457 3.16826,-14.91002 7.01406,-19.92636 10.34232,-13.49021 2.07666,4.01581 3.3409,3.86648 8.04424,-0.95018 10.34687,-10.59616 21.16275,-5.09196 18.41941,9.37363 -2.63617,13.90045 8.76877,15.43613 12.71972,1.71273 3.53339,-12.27301 9.44488,-19.89594 17.07146,-22.01386 4.99383,-1.3868 5.60613,-1.34785 9.73085,0.61909 4.44579,2.12006 4.46821,2.09179 6.18492,-7.80072 2.29997,-13.25352 5.76042,-19.38516 10.55652,-18.70526 3.52494,0.49969 3.36857,3.76493 -1.13385,23.677 -5.27133,23.31261 -5.20807,26.14976 0.58313,26.14976 4.56547,0 7.31925,-3.88145 9.34394,-13.17032 3.05092,-13.99695 7.41305,-20.23135 11.67865,-16.69122 1.59343,1.32243 1.55958,3.53324 -0.25838,16.87331 -0.8055,5.91077 1.78533,9.65838 5.95385,8.61215 6.45117,-1.61914 11.07171,-18.81165 6.25582,-23.2772 -3.04404,-2.8226 -2.99233,-4.32745 0.20396,-5.9355 3.97195,-1.99829 6.08139,-4.60453 7.72015,-9.53835 3.16804,-9.53809 10.6195,-8.9577 8.45076,0.65823 -1.0557,4.68081 0.0694,6.4689 4.07044,6.4689 6.77258,0 4.98947,6.26129 -2.39442,8.40784 -7.94252,2.30896 -10.76544,11.58664 -5.21446,17.13761 6.04985,6.04986 13.76234,1.61973 16.60806,-9.53983 3.69076,-14.47335 14.54434,-22.82893 25.88007,-19.92367 4.37535,1.12137 4.96995,1.04252 7.77439,-1.03089 6.36323,-4.70454 8.60964,-0.95968 5.83876,9.73349 -3.71886,14.35154 0.987,20.33293 9.06149,11.51764 6.64002,-7.24921 6.2178,3.14463 -0.68213,16.79249 -5.94038,11.74988 -18.3828,12.91727 -20.58008,1.93089 -0.80684,-4.03421 -1.91268,-3.81313 -4.29616,0.85888 -5.9774,11.71666 -16.84581,14.49717 -21.66777,5.54335 -2.40386,-4.4637 -3.37214,-4.32732 -7.13019,1.00427 -6.42362,9.11326 -15.55409,11.35875 -21.36286,5.25386 -3.37085,-3.54269 -3.37085,-3.54269 -8.42282,1.88569 -7.3238,7.86949 -14.8328,7.41994 -17.8996,-1.07162 -0.67874,-1.87934 -0.8699,-1.81902 -3.16866,1 -9.56392,11.72844 -15.33961,12.52734 -19.88117,2.75 -2.50323,-5.3891 -2.81117,-5.34092 -6.21241,0.97185 -6.03663,11.20411 -18.6591,12.71669 -21.86367,2.61998 -0.76571,-2.41253 -3.14973,-2.36263 -3.92568,0.0822 -6.02178,18.97296 -23.36652,12.62509 -22.01541,-8.05726 0.77423,-11.85173 0.3636,-12.80446 -4.94455,-11.4722 -5.36164,1.34569 -7.06416,5.91101 -7.06416,18.94261 0,11.2333 -0.12043,11.93472 -2.36078,13.75 -4.64016,3.75974 -10.43621,1.47377 -11.56865,-4.56269 -0.57506,-3.06534 -3.57057,-5.28439 -3.57057,-2.64507 0,11.98642 -26.60467,17.41616 -35.11801,7.16722 -3.50188,-4.2158 -3.50188,-4.2158 -6.94193,1.59259 -5.13469,8.66968 -11.93535,12.34126 -17.19008,9.28066 z m 43.86882,-36.46085 c 2.33077,-3.55721 0.5733,-7.46539 -3.34736,-7.44373 -3.34751,0.0185 -4.6,0.77824 -6.15692,3.73469 -2.9983,5.69351 5.92286,9.17498 9.50428,3.70904 z m 93.27998,-4.8513 c 3.4942,-3.7194 3.76484,-8.03503 0.69631,-11.10356 -4.76996,-4.76995 -11.95963,0.17488 -11.39692,7.83845 0.4786,6.51802 6.04812,8.21746 10.70061,3.26511 z M 781.12287,26.43461 c 5.13274,-5.67161 3.86291,-12.52627 -2.41783,-13.0517 -6.03224,-0.50464 -10.87351,9.3876 -6.65758,13.60353 1.78451,1.78451 7.2625,1.45142 9.07541,-0.55183 z m 0.092,36.55153 c -1.04456,-12.05466 -0.39704,-15.7997 2.73183,-15.7997 4.02158,0 4.8313,26.33361 0.82405,26.7997 -2.5767,0.2997 -2.5767,0.2997 -3.55586,-11 z M 486.96433,54.55575 c -5.60317,-3.92462 -6.83518,-15.52842 -2.55965,-24.1083 6.53267,-13.10935 18.53726,-18.785 47.1322,-22.28364 8.90418,-1.08945 17.37098,-2.43004 18.8151,-2.97909 8.55407,-3.25225 10.57482,0.30902 6.8134,12.00755 -3.5556,11.05838 -10.43806,14.43665 -17.42832,8.55473 -13.11065,-11.03188 -46.82539,3.50305 -35.5133,15.31032 7.93194,8.27917 -7.49046,20.34088 -17.25943,13.49843 z M 534.38897,2.25361 c -2.63686,-4.26653 23.74962,-33.273778 40.53376,-44.559666 60.46708,-40.658916 142.44648,-26.586407 186.3723,31.992496 4.97148,6.62991 5.53063,8.90612 2.57619,10.48728 -1.74602,0.93445 -2.62672,0.17806 -7.56034,-6.49318 -54.74001,-74.019506 -166.21394,-69.79799 -215.8601,8.17462 -0.58945,0.92577 -5.53499,1.25085 -6.06181,0.39845 z M 710.59598,0.46105 c -4.94915,-5.46875 -0.35375,-13.27461 7.81491,-13.27461 7.02873,0 10.07775,6.51671 5.623,12.01809 -2.59144,3.2003 -10.96983,3.98372 -13.43791,1.25652 z m -39.75517,-8.78169 c -2.35528,-2.50708 -2.35528,-2.50708 -0.21613,-4.5 4.31846,-4.02325 10.05113,0.29869 6.02626,4.54329 -2.8612,3.01741 -2.93527,3.01686 -5.81013,-0.0433 z m -33.79734,-9.54255 c -1.33683,-2.34075 -3.75054,-4.72403 -5.75,-5.67751 -4.3024,-2.05167 -4.28554,-2.28484 0.3568,-4.9348 2.08307,-1.189061 4.65693,-3.776561 5.7197,-5.749996 2.3328,-4.331747 2.45515,-4.340027 4.97749,-0.336855 1.1,1.745793 3.575,4.230495 5.5,5.52156 4.61096,3.092501 4.65795,3.543051 0.57262,5.491211 -2.01806,0.96234 -4.42663,3.33658 -5.76863,5.68639 -1.2672,2.21883 -2.52899,4.03423 -2.80399,4.03423 -0.275,0 -1.53679,-1.8154 -2.80399,-4.03423 z"
           id="path3994" />
      </g>
    </g>
  </g>
</svg>
